<svg xmlns="http://www.w3.org/2000/svg" width="512" height="512" viewBox="0 0 512 512" role="img" aria-labelledby="title desc">
  <title id="title">Open GIF Studio logo</title>
  <desc id="desc">OGS letters with circular arrows and a play button.</desc>
  <defs>
    <filter id="shadow" x="-20%" y="-20%" width="140%" height="140%">
      <feDropShadow dx="0" dy="7" stdDeviation="7" flood-color="#000" flood-opacity="0.55"/>
    </filter>
    <linearGradient id="green" x1="0" y1="0" x2="1" y2="1">
      <stop offset="0" stop-color="#00b837"/>
      <stop offset="1" stop-color="#058c42"/>
    </linearGradient>
    <linearGradient id="dark" x1="0" y1="0" x2="1" y2="1">
      <stop offset="0" stop-color="#4c5444"/>
      <stop offset="1" stop-color="#20251d"/>
    </linearGradient>
  </defs>

  <g filter="url(#shadow)">
    <path d="M197 50c86 4 157 54 192 126l-42-12c-25-39-67-67-116-76l11 31-101-30 80-70-24 31Z" fill="url(#dark)" stroke="#0a0f0a" stroke-width="5"/>
    <path d="M436 204c4 85-38 164-109 208l8-44c39-29 63-74 66-124l-29 15 17-104 80 70-33-21Z" fill="url(#dark)" stroke="#0a0f0a" stroke-width="5"/>
    <path d="M315 459c-84 24-176 0-236-60l44-4c37 28 85 39 132 28l-23-24 104-14-45 95 24-21Z" fill="url(#dark)" stroke="#0a0f0a" stroke-width="5"/>
    <path d="M62 311c-31-82-14-178 40-244l4 45c-25 40-31 88-16 134l22-26 25 102-100-35 25 24Z" fill="url(#dark)" stroke="#0a0f0a" stroke-width="5"/>
  </g>

  <path d="M159 214c31-59 105-83 165-52 19 10 35 24 46 41l-39 20c-8-11-18-20-31-27-39-20-88-5-108 34-20 40-5 89 35 109 34 18 75 8 98-19h-66v-45h132c-1 23-8 45-20 64-34 59-109 80-168 49-61-31-85-109-44-174Z" fill="url(#green)" stroke="#073d19" stroke-width="7"/>
  <path d="M230 206c0-9 10-15 18-10l67 42c8 5 8 17 0 22l-67 42c-8 5-18-1-18-10v-86Z" fill="#ea701d" stroke="#f5f5dc" stroke-width="3"/>

  <g font-family="Arial Black, Impact, sans-serif" font-weight="900" font-size="136" stroke="#0a0f0a" stroke-width="10" paint-order="stroke fill" filter="url(#shadow)">
    <text x="60" y="327" fill="#f5f5dc">O</text>
    <text x="342" y="327" fill="#f5f5dc">S</text>
  </g>
</svg>
